<svg id="Layer_1" data-name="Layer 1" xmlns="http://www.w3.org/2000/svg" viewBox="0 0 150 150"><defs><style>.cls-1{fill:#373737;}</style></defs><path class="cls-1" d="M116.74,62.54H114.5c-1.24-.7-1.28-1.19-1.45-3.19-1.39-17.12-14.55-25-23.88-28.44l-.08-1.86a4.05,4.05,0,0,0-4-3.88H69.61a4.05,4.05,0,0,0-4,3.88l-.1,2.4a32.5,32.5,0,0,0-5.79,2l-.16.08C48.7,39.3,42.51,48.21,41.6,59.35c-.16,2-.2,2.49-1.44,3.19H37.91a4,4,0,0,0-4,4.05V77.23A4,4,0,0,0,37,81.17a7.13,7.13,0,0,0,2.12.1,20.29,20.29,0,0,0-.68,5.23,16.43,16.43,0,0,0,5.87,12.68c2.38,11.71,11.78,31.33,33,31.33s30.54-19.49,33-31.21a15.73,15.73,0,0,0,6.4-10.08,16.47,16.47,0,0,0-.76-7.93,6.51,6.51,0,0,0,1.81-.12,4.05,4.05,0,0,0,3.13-3.94V66.59A4.05,4.05,0,0,0,116.74,62.54ZM42,70.55a3.67,3.67,0,0,0,.95-.32c5.7-2.77,6.47-6.57,6.77-10.22.67-8.33,5.23-14.8,13.54-19.23.38-.18,1.07-.47,1.88-.76L64,66.29l8.09.35,1.41-33.37h7.67l1.41,33.37,8.1-.35L89.55,39.83C97,43.24,104.1,49.29,105,60c.29,3.65,1.06,7.45,6.76,10.22a3.8,3.8,0,0,0,1,.32v2.57a29.41,29.41,0,0,0-8.84,1.46c-11.1,3.79-17.72,3.78-25.35,3.77H76.32c-6.74,0-14.41,0-25.52-3.77A29.41,29.41,0,0,0,42,73.12Zm66.66,17.37c-.32,2-1.62,3.8-4,5.41a4,4,0,0,0-2.12,2.94,44.59,44.59,0,0,1-5,13.59c-4.85,8.33-11.66,12.55-20.25,12.55S61.86,118.19,57,109.86a44.5,44.5,0,0,1-5-13.58,4.06,4.06,0,0,0-1.9-2.82c-4.76-3.63-3.74-8.74-2.7-11.45.26.08.52.15.78.24,12.39,4.22,21.11,4.21,28.15,4.2h3.32c7.61,0,15-.18,26.82-4.2.3-.11.59-.18.89-.27A9.88,9.88,0,0,1,108.62,87.92Z"/></svg>