<svg id="Layer_1" data-name="Layer 1" xmlns="http://www.w3.org/2000/svg" viewBox="0 0 150 150"><defs><style>.cls-1{fill:#373737;}</style></defs><path class="cls-1" d="M52.66,84.77a5.12,5.12,0,0,0,1.26,5.51c4.15,4.2,6.82,6.89,11,11.07a5.35,5.35,0,0,0,2,1.27,5.71,5.71,0,0,0,1.74.29,5.4,5.4,0,0,0,3.84-1.71c3.34-3.33,7.26-7.11,12-11.71C88.43,85.8,92.82,81.56,96.43,78l.4-.41a5.26,5.26,0,0,0,.53-6.22A5.15,5.15,0,0,0,93,69a5.25,5.25,0,0,0-3.72,1.52c-3.07,3-7,6.82-9.9,9.59l-.53.51c-3.29,3.15-6.75,6.48-9.74,9.42l-.43.43L61.3,83a5.17,5.17,0,0,0-4.15-1.62A5,5,0,0,0,52.66,84.77Z"/><path class="cls-1" d="M118.49,104.41l0-6.07c0-1.77,0-3.55,0-5.32v-3.7c0-.26,0-.74,0-3.56V82.58c0-9.61,0-19.53,0-29.3,0-7.47-3.13-13-9.3-16.31a16,16,0,0,0-7.8-1.7h-5.6a5.57,5.57,0,0,0-.55-1A5.74,5.74,0,0,0,92,32a5.88,5.88,0,0,0-1.5-.19H87.11V31.3a12,12,0,0,0-12-11.81H75a12.1,12.1,0,0,0-8.49,3.45,12,12,0,0,0-3.58,8.36v.49H59.51A5.88,5.88,0,0,0,58,32a5.74,5.74,0,0,0-3.22,2.27,5.57,5.57,0,0,0-.55,1H48.63A16,16,0,0,0,40.84,37c-6.17,3.35-9.3,8.84-9.3,16.32,0,9.76,0,19.68,0,29.29v3.18c0,2.82,0,3.3,0,3.56V93c0,1.77,0,3.55,0,5.32l0,6c0,4,0,4,.07,8l.06,2.59A16.5,16.5,0,0,0,48,131c8.77,0,17.33-.06,26-.06h1.86c8.72,0,17.28,0,26.13.06a16.14,16.14,0,0,0,11.39-4.75A16.31,16.31,0,0,0,118.36,115l.06-2.56C118.5,108.42,118.5,108.42,118.49,104.41ZM68.58,31.28a6.32,6.32,0,0,1,6.28-6.11h.28a6.32,6.32,0,0,1,6.28,6.11v.51H68.58ZM59.3,48.86H90.66A5.75,5.75,0,0,0,96,44.7a5,5,0,0,0,.16-.77h3.9c1.09,0,1.93,0,2.68.09A7.84,7.84,0,0,1,110,51.2c.2,3.59.2,7.38.2,10.72v49.86c0,2.07,0,4.2-.94,6-1.66,3.08-4,4.58-7.25,4.58H48c-3.22,0-5.59-1.5-7.24-4.58-1-1.78-1-3.91-1-6V61.94c0-3.35,0-7.14.2-10.74A7.84,7.84,0,0,1,47.25,44c.75-.06,1.59-.07,2.68-.09h3.9a5.82,5.82,0,0,0,.16.77A5.74,5.74,0,0,0,59.3,48.86Z"/></svg>